<svg width="14" height="14" viewBox="0 0 14 14" fill="none" xmlns="http://www.w3.org/2000/svg">
<path d="M11.3333 0H2C1.46957 0 0.960859 0.210714 0.585787 0.585787C0.210714 0.960859 1.20585e-07 1.46957 1.20585e-07 2V2.78C-9.54715e-05 3.0553 0.0566443 3.32765 0.166667 3.58V3.62C0.260853 3.83398 0.394262 4.02844 0.56 4.19333L4.66667 8.27333V12.6667C4.66644 12.78 4.69509 12.8914 4.74991 12.9906C4.80474 13.0897 4.88393 13.1733 4.98 13.2333C5.08609 13.2991 5.20852 13.3337 5.33333 13.3333C5.43769 13.3327 5.54045 13.3076 5.63333 13.26L8.3 11.9267C8.40994 11.8713 8.5024 11.7865 8.56712 11.6818C8.63184 11.5771 8.66629 11.4564 8.66667 11.3333V8.27333L12.7467 4.19333C12.9124 4.02844 13.0458 3.83398 13.14 3.62V3.58C13.2592 3.32962 13.325 3.05719 13.3333 2.78V2C13.3333 1.46957 13.1226 0.960859 12.7475 0.585787C12.3725 0.210714 11.8638 0 11.3333 0ZM7.52667 7.52667C7.46488 7.58896 7.416 7.66284 7.38282 7.74406C7.34964 7.82529 7.33283 7.91226 7.33333 8V10.92L6 11.5867V8C6.00051 7.91226 5.98369 7.82529 5.95051 7.74406C5.91734 7.66284 5.86845 7.58896 5.80667 7.52667L2.27333 4H11.06L7.52667 7.52667ZM12 2.66667H1.33333V2C1.33333 1.82319 1.40357 1.65362 1.5286 1.5286C1.65362 1.40357 1.82319 1.33333 2 1.33333H11.3333C11.5101 1.33333 11.6797 1.40357 11.8047 1.5286C11.9298 1.65362 12 1.82319 12 2V2.66667Z" fill="#3365FC"/>
</svg>
